<svg width="121" height="33" viewBox="0 0 121 33" fill="none" xmlns="http://www.w3.org/2000/svg">
<rect x="0.3008" y="0.301045" width="120.398" height="32.1062" rx="9.6" fill="#FDFCF5"/>
<rect x="0.3008" y="0.301045" width="120.398" height="32.1062" rx="9.6" stroke="#8D6346" stroke-width="0.6"/>
<rect x="8.72859" y="8.3276" width="19.2637" height="15.6518" rx="6" fill="#8D6346"/>
<rect x="13.5448" y="14.3473" width="2.40797" height="3.61195" rx="1.2" fill="#FDFCF5"/>
<rect x="20.7689" y="14.3473" width="2.40797" height="3.61195" rx="1.2" fill="#FDFCF5"/>
<path d="M39.9038 10.8528C41.1175 10.8528 42.1288 11.1706 42.909 11.8063C43.6603 12.4131 44.1082 13.2511 44.2671 14.2913H42.62C42.4467 13.6123 42.1288 13.1211 41.652 12.8032C41.1897 12.4854 40.5973 12.3409 39.875 12.3409C38.7914 12.3409 37.9823 12.7021 37.4333 13.4534C36.9276 14.118 36.682 15.0426 36.682 16.2273C36.682 17.441 36.9276 18.3801 37.4188 19.0302C37.9534 19.7237 38.7914 20.0849 39.9183 20.0849C40.6551 20.0849 41.2619 19.8971 41.7243 19.5503C42.2155 19.1603 42.5622 18.5679 42.7645 17.7877H44.4116C44.1804 19.0013 43.6458 19.9404 42.7934 20.6195C41.9988 21.2552 41.0452 21.573 39.9327 21.573C38.2135 21.573 36.9276 21.024 36.0896 19.9549C35.3528 19.0302 34.9916 17.7877 34.9916 16.2273C34.9916 14.6959 35.3672 13.4389 36.133 12.4854C36.9998 11.3873 38.2568 10.8528 39.9038 10.8528ZM49.3299 13.699C50.4568 13.699 51.3671 14.0602 52.0605 14.8115C52.7396 15.5483 53.0863 16.4874 53.0863 17.6432C53.0863 18.7846 52.7396 19.7237 52.075 20.4461C51.3815 21.1974 50.4568 21.573 49.3299 21.573C48.1885 21.573 47.2783 21.1974 46.5848 20.4461C45.9058 19.7237 45.5735 18.7846 45.5735 17.6432C45.5735 16.4874 45.9058 15.5483 46.5993 14.8115C47.2783 14.0602 48.1885 13.699 49.3299 13.699ZM49.3299 15.0426C48.6364 15.0426 48.1163 15.3027 47.7407 15.8517C47.4228 16.314 47.2639 16.9208 47.2639 17.6432C47.2639 18.3656 47.4228 18.958 47.7407 19.4203C48.1163 19.9549 48.6364 20.2294 49.3299 20.2294C50.009 20.2294 50.5435 19.9549 50.9192 19.4203C51.237 18.9435 51.4104 18.3512 51.4104 17.6432C51.4104 16.9208 51.237 16.314 50.9192 15.8517C50.5435 15.3027 50.009 15.0426 49.3299 15.0426ZM54.1643 13.9012H60.3768V14.9559L56.187 20.0271H60.608V21.3708H54.0198V20.2583L58.1519 15.2449H54.1643V13.9012ZM65.0126 13.699C66.2406 13.699 67.1797 14.1035 67.8299 14.9415C68.4222 15.6928 68.7256 16.7475 68.7256 18.0911H63.1343C63.1921 18.7846 63.38 19.3192 63.6978 19.6804C64.0157 20.0416 64.478 20.2294 65.0703 20.2294C65.576 20.2294 65.9806 20.1138 66.2984 19.8826C66.544 19.6948 66.7607 19.3914 66.963 18.9724H68.6101C68.4367 19.6659 68.0899 20.2583 67.5698 20.7206C66.9052 21.2841 66.0817 21.573 65.0848 21.573C63.9723 21.573 63.091 21.2263 62.4408 20.5472C61.7474 19.8393 61.4006 18.8713 61.4006 17.6288C61.4006 16.5163 61.7185 15.5916 62.3831 14.8404C63.0188 14.0746 63.9001 13.699 65.0126 13.699ZM65.0559 15.0426C64.5069 15.0426 64.0879 15.1871 63.77 15.505C63.4666 15.8084 63.2644 16.2562 63.1632 16.8486H67.0064C66.8619 15.635 66.2117 15.0426 65.0559 15.0426ZM71.9097 11.7196C71.6496 12.0953 71.3607 12.4131 71.0717 12.7021H72.9499C73.0077 12.3842 73.0511 12.0664 73.08 11.7196H71.9097ZM72.5165 14.0746H69.9303V12.7021H70.566L69.8581 11.8208C70.5227 11.2429 71.1006 10.4193 71.6063 9.35019L72.9644 9.65359C72.8633 9.91365 72.7621 10.1737 72.6465 10.4049H76.533V11.7196H74.4959C74.467 12.0664 74.4381 12.3842 74.3947 12.7021H76.9375V14.0746H74.0913L74.048 14.2047C75.1171 14.7537 76.0129 15.2882 76.7497 15.8373L75.8973 16.6897H81.4452V22.9167H79.9138V22.3821H73.2389V22.9167H71.7219V17.0364C71.3751 17.2387 71.0139 17.441 70.6383 17.6288L69.6269 16.4007C71.1006 15.7506 72.0686 14.9704 72.5165 14.0746ZM73.2389 21.0529H79.9138V20.2149H73.2389V21.0529ZM73.2389 18.9146H79.9138V18.0189H73.2389V18.9146ZM72.2275 16.6897H75.435C74.9148 16.2273 74.2936 15.7795 73.5567 15.3171C73.2244 15.8084 72.7766 16.2707 72.2275 16.6897ZM77.3276 10.4482H82.4999V15.9817H77.3276V10.4482ZM81.0263 14.667V11.7774H78.8013V14.667H81.0263ZM86.4586 18.0478V18.9869H89.2904V18.0478H86.4586ZM89.2904 16.8053V15.8084H86.4586V16.8053H89.2904ZM86.4586 20.2294V22.9022H84.9994V14.5081H90.7496V21.2118C90.7496 22.2665 90.2584 22.8011 89.276 22.8011H88.1635L87.7878 21.3997L88.7992 21.4719C89.117 21.4719 89.2904 21.2696 89.2904 20.894V20.2294H86.4586ZM95.633 15.9528H93.278C92.2233 15.9528 91.7032 15.3605 91.7032 14.1902V9.5669H93.1913V11.214C94.6361 10.9828 95.8208 10.7516 96.7455 10.506L97.2367 11.8352C96.052 12.0953 94.7083 12.3409 93.1913 12.572V13.8868C93.1913 14.3491 93.3502 14.5947 93.697 14.5947H95.344C95.5463 14.5947 95.6908 14.5225 95.7919 14.378C95.8931 14.2191 95.9653 13.7568 95.9942 12.9766L97.3956 13.4389C97.28 14.6525 97.0922 15.3894 96.8322 15.6205C96.5721 15.8373 96.1676 15.9528 95.633 15.9528ZM93.1913 19.3047V20.9518C93.1913 21.1974 93.3502 21.3274 93.6825 21.3274H95.344C95.5463 21.3274 95.7052 21.2552 95.7919 21.1107C95.9075 20.9518 95.9797 20.4894 96.0231 19.7093L97.3956 20.1427C97.28 21.3708 97.0778 22.0932 96.8177 22.3243C96.5577 22.541 96.1676 22.6566 95.633 22.6566H93.2636C92.2233 22.6566 91.7032 22.1943 91.7032 21.2841V16.4296H93.1913V17.9466C94.5205 17.8022 95.7052 17.571 96.7455 17.2531L97.2367 18.5968C95.9797 18.9291 94.6361 19.1603 93.1913 19.3047ZM89.7238 10.506C90.5618 11.6474 91.1975 12.6298 91.6598 13.4678L90.4173 14.3491C90.2729 14.0602 90.1139 13.7568 89.955 13.4534C88.4524 13.6845 86.6609 13.8724 84.5949 13.9879L84.1903 12.731C84.4504 12.6443 84.6816 12.5287 84.8694 12.3553C85.7362 11.344 86.3719 10.376 86.8054 9.48022L88.2502 9.91365C87.6723 11.0406 87.0221 11.9508 86.2853 12.6587C87.2388 12.6009 88.2502 12.4998 89.3193 12.3842C89.0881 12.0086 88.8281 11.6329 88.568 11.2429L89.7238 10.506ZM100.155 15.7072C99.794 16.184 99.4183 16.6463 99.0138 17.1087L98.5515 15.6061C99.9384 13.8435 100.979 11.7919 101.643 9.42243L103.001 10.0581C102.655 11.214 102.192 12.312 101.643 13.3667V22.8878H100.155V15.7072ZM102.597 11.763H106.165V9.48022H107.654V11.763H111.424V13.2078H108.766C109.402 15.4038 110.485 17.3687 112.002 19.1025L111.02 20.345C109.431 18.2934 108.304 15.9962 107.654 13.4678V18.6257H109.647V20.0705H107.654V22.8878H106.165V20.0705H104.229V18.6257H106.165V13.4823C105.443 16.3285 104.258 18.669 102.64 20.5183L101.86 19.218C103.305 17.6432 104.359 15.635 105.039 13.2078H102.597V11.763Z" fill="#8D6346"/>
</svg>
