<svg width="94" height="33" viewBox="0 0 94 33" fill="none" xmlns="http://www.w3.org/2000/svg">
<rect x="0.301087" y="0.301332" width="93.3978" height="32.1369" rx="9.6" fill="#FDFCF5"/>
<rect x="0.301087" y="0.301332" width="93.3978" height="32.1369" rx="9.6" stroke="#8D6346" stroke-width="0.6"/>
<path d="M18.4781 6.42752C23.8026 6.42752 28.1196 10.7438 28.1198 16.0682C28.1198 21.2265 24.0685 25.439 18.9744 25.6971L18.4781 25.7099H11.2481V22.442C9.74904 20.7427 8.83745 18.5124 8.83745 16.0682C8.83766 10.7439 13.1538 6.42774 18.4781 6.42752Z" fill="#8D6346"/>
<path d="M17.8425 13.1788C17.9696 12.9426 18.2058 12.4529 18.4785 12.4529C18.7512 12.4529 18.9871 12.9426 19.1145 13.1788L19.4526 13.9866C19.6621 14.4869 20.06 14.8848 20.5603 15.0943L21.3681 15.4324C21.6043 15.5594 22.0939 15.7956 22.0939 16.0683C22.0939 16.341 21.6043 16.5769 21.3681 16.7043L20.5603 17.0424C20.06 17.2519 19.6621 17.6498 19.4526 18.1501L19.1145 18.9579C18.9874 19.1941 18.7512 19.6837 18.4785 19.6837C18.2058 19.6837 17.9699 19.1941 17.8425 18.9579L17.5044 18.1501C17.2949 17.6498 16.8971 17.2519 16.3967 17.0424L15.5889 16.7043C15.3527 16.5773 14.8631 16.341 14.8631 16.0683C14.8631 15.7956 15.3527 15.5598 15.5889 15.4324L16.3967 15.0943C16.8971 14.8848 17.2949 14.4869 17.5044 13.9866L17.8425 13.1788Z" fill="#FDFCF5"/>
<path d="M35.4839 21.8933V11.3758H39.428C40.236 11.3758 40.9138 11.5264 41.4616 11.8277C42.0128 12.129 42.4288 12.5432 42.7096 13.0705C42.9937 13.5943 43.1358 14.19 43.1358 14.8577C43.1358 15.5321 42.9937 16.1313 42.7096 16.6551C42.4254 17.1789 42.006 17.5915 41.4514 17.8927C40.8967 18.1906 40.2137 18.3395 39.4023 18.3395H36.7883V16.7732H39.1455C39.618 16.7732 40.0049 16.691 40.3061 16.5267C40.6074 16.3624 40.83 16.1364 40.9738 15.8488C41.121 15.5612 41.1946 15.2308 41.1946 14.8577C41.1946 14.4845 41.121 14.1558 40.9738 13.8716C40.83 13.5875 40.6057 13.3666 40.301 13.2092C39.9997 13.0482 39.6111 12.9678 39.1353 12.9678H37.3892V21.8933H35.4839ZM44.7086 21.8933V14.0052H46.5111V15.3198H46.5933C46.7371 14.8645 46.9836 14.5136 47.3328 14.2671C47.6854 14.0171 48.0877 13.8922 48.5397 13.8922C48.6424 13.8922 48.7571 13.8973 48.8837 13.9076C49.0138 13.9144 49.1217 13.9264 49.2073 13.9435V15.6537C49.1285 15.6263 49.0036 15.6023 48.8324 15.5818C48.6646 15.5578 48.502 15.5458 48.3445 15.5458C48.0056 15.5458 47.7009 15.6194 47.4304 15.7666C47.1633 15.9104 46.9528 16.1107 46.7987 16.3675C46.6447 16.6243 46.5676 16.9204 46.5676 17.2559V21.8933H44.7086ZM53.5583 22.0474C52.788 22.0474 52.1204 21.8779 51.5555 21.539C50.9906 21.2 50.5523 20.7258 50.2408 20.1164C49.9327 19.507 49.7786 18.7949 49.7786 17.98C49.7786 17.1652 49.9327 16.4514 50.2408 15.8385C50.5523 15.2257 50.9906 14.7498 51.5555 14.4109C52.1204 14.0719 52.788 13.9024 53.5583 13.9024C54.3287 13.9024 54.9963 14.0719 55.5612 14.4109C56.1261 14.7498 56.5626 15.2257 56.8707 15.8385C57.1823 16.4514 57.3381 17.1652 57.3381 17.98C57.3381 18.7949 57.1823 19.507 56.8707 20.1164C56.5626 20.7258 56.1261 21.2 55.5612 21.539C54.9963 21.8779 54.3287 22.0474 53.5583 22.0474ZM53.5686 20.5581C53.9863 20.5581 54.3355 20.4434 54.6162 20.214C54.897 19.9812 55.1058 19.6696 55.2428 19.2793C55.3832 18.889 55.4533 18.4542 55.4533 17.9749C55.4533 17.4922 55.3832 17.0557 55.2428 16.6654C55.1058 16.2716 54.897 15.9584 54.6162 15.7256C54.3355 15.4927 53.9863 15.3763 53.5686 15.3763C53.1406 15.3763 52.7846 15.4927 52.5004 15.7256C52.2197 15.9584 52.0091 16.2716 51.8688 16.6654C51.7318 17.0557 51.6633 17.4922 51.6633 17.9749C51.6633 18.4542 51.7318 18.889 51.8688 19.2793C52.0091 19.6696 52.2197 19.9812 52.5004 20.214C52.7846 20.4434 53.1406 20.5581 53.5686 20.5581ZM58.916 21.8933V14.0052H60.6928V15.3455H60.7853C60.9496 14.8936 61.2218 14.541 61.6018 14.2876C61.9819 14.0308 62.4355 13.9024 62.9627 13.9024C63.4968 13.9024 63.947 14.0325 64.3134 14.2927C64.6831 14.5495 64.9433 14.9004 65.094 15.3455H65.1761C65.3508 14.9073 65.6452 14.5581 66.0595 14.2979C66.4771 14.0343 66.9719 13.9024 67.5436 13.9024C68.2694 13.9024 68.8617 14.1318 69.3205 14.5906C69.7793 15.0494 70.0087 15.7187 70.0087 16.5986V21.8933H68.1445V16.8862C68.1445 16.3966 68.0144 16.0388 67.7542 15.8129C67.494 15.5835 67.1756 15.4688 66.799 15.4688C66.3505 15.4688 65.9995 15.6091 65.7462 15.8899C65.4963 16.1672 65.3713 16.5284 65.3713 16.9735V21.8933H63.5482V16.8091C63.5482 16.4017 63.4249 16.0765 63.1784 15.8334C62.9353 15.5903 62.6169 15.4688 62.2232 15.4688C61.9562 15.4688 61.7131 15.5373 61.494 15.6742C61.2749 15.8077 61.1003 15.9977 60.9702 16.2442C60.8401 16.4873 60.775 16.7715 60.775 17.0967V21.8933H58.916ZM71.8947 24.8514V14.0052H73.7229V15.3096H73.8308C73.9266 15.1179 74.0619 14.9141 74.2365 14.6985C74.4111 14.4793 74.6473 14.2927 74.9452 14.1387C75.243 13.9812 75.6231 13.9024 76.0853 13.9024C76.6947 13.9024 77.2442 14.0582 77.7338 14.3698C78.2268 14.6779 78.6171 15.135 78.9046 15.741C79.1957 16.3435 79.3412 17.083 79.3412 17.9595C79.3412 18.8257 79.1991 19.5618 78.9149 20.1678C78.6308 20.7738 78.2439 21.236 77.7543 21.5544C77.2647 21.8728 76.7101 22.032 76.0904 22.032C75.6385 22.032 75.2636 21.9566 74.9657 21.806C74.6679 21.6554 74.4282 21.4739 74.2467 21.2616C74.0687 21.0459 73.9301 20.8422 73.8308 20.6505H73.7537V24.8514H71.8947ZM73.7178 17.9492C73.7178 18.4594 73.7897 18.9061 73.9335 19.2896C74.0807 19.6731 74.2912 19.9726 74.5651 20.1883C74.8425 20.4006 75.178 20.5067 75.5717 20.5067C75.9825 20.5067 76.3266 20.3972 76.6039 20.178C76.8813 19.9555 77.0901 19.6525 77.2305 19.2691C77.3743 18.8822 77.4462 18.4422 77.4462 17.9492C77.4462 17.4596 77.376 17.0248 77.2356 16.6448C77.0952 16.2648 76.8864 15.9669 76.6091 15.7512C76.3318 15.5355 75.986 15.4277 75.5717 15.4277C75.1746 15.4277 74.8373 15.5321 74.56 15.741C74.2827 15.9498 74.0721 16.2425 73.9283 16.6191C73.788 16.9957 73.7178 17.4391 73.7178 17.9492ZM84.8721 14.0052V15.4431H80.3375V14.0052H84.8721ZM81.457 12.1153H83.3161V19.5207C83.3161 19.7706 83.3537 19.9624 83.429 20.0959C83.5078 20.226 83.6105 20.315 83.7372 20.3629C83.8638 20.4109 84.0042 20.4348 84.1583 20.4348C84.2747 20.4348 84.3808 20.4263 84.4767 20.4091C84.576 20.392 84.6513 20.3766 84.7026 20.3629L85.0159 21.8163C84.9166 21.8505 84.7745 21.8882 84.5897 21.9293C84.4082 21.9703 84.1857 21.9943 83.922 22.0011C83.4564 22.0148 83.037 21.9447 82.6638 21.7906C82.2907 21.6331 81.9945 21.39 81.7754 21.0613C81.5597 20.7327 81.4536 20.3218 81.457 19.8288V12.1153Z" fill="#8D6346"/>
</svg>
