<svg width="20" height="20" viewBox="0 0 20 20" fill="none" xmlns="http://www.w3.org/2000/svg">
<path d="M10 13.75C11.3807 13.75 12.5 12.6307 12.5 11.25C12.5 9.86929 11.3807 8.75 10 8.75C8.61929 8.75 7.5 9.86929 7.5 11.25C7.5 12.6307 8.61929 13.75 10 13.75Z" fill="#1F2329"/>
<path fill-rule="evenodd" clip-rule="evenodd" d="M6.20601 2.17131C6.48833 1.60667 7.06544 1.25 7.69672 1.25H12.3033C12.9346 1.25 13.5117 1.60667 13.794 2.17131L14.5833 3.75H16.6667C18.5076 3.75 20 5.24238 20 7.08333V15.4167C20 17.2576 18.5076 18.75 16.6667 18.75H3.33333C1.49238 18.75 0 17.2576 0 15.4167V7.08333C0 5.24238 1.49238 3.75 3.33333 3.75H5.41667L6.20601 2.17131ZM10 15.4167C12.3012 15.4167 14.1667 13.5512 14.1667 11.25C14.1667 8.94881 12.3012 7.08333 10 7.08333C7.69881 7.08333 5.83333 8.94881 5.83333 11.25C5.83333 13.5512 7.69881 15.4167 10 15.4167ZM17.9167 7.08333C17.9167 7.77369 17.357 8.33333 16.6667 8.33333C15.9763 8.33333 15.4167 7.77369 15.4167 7.08333C15.4167 6.39298 15.9763 5.83333 16.6667 5.83333C17.357 5.83333 17.9167 6.39298 17.9167 7.08333Z" fill="#1F2329"/>
</svg>
